{"glyphs":{":":{"x_min":0,"x_max":197,"ha":197,"o":"m 99 340 q 81 340 70 352 q 58 365 58 381 q 58 398 70 410 q 81 422 99 422 q 115 422 127 410 q 139 398 139 381 q 139 365 127 352 q 115 340 99 340 z m 99 -6 q 81 -6 70 6 q 58 19 58 35 q 58 52 70 64 q 81 76 99 76 q 115 76 127 64 q 139 52 139 35 q 139 19 127 6 q 115 -6 99 -6 z"},"$":{"x_min":0,"x_max":491,"ha":491,"o":"m 259 -52 q 251 -52 244 -46 q 238 -41 238 -34 l 238 4 q 175 4 131 24 q 87 43 64 68 q 42 93 42 108 q 42 114 46 121 q 49 128 54 132 q 60 136 65 136 q 73 136 82 124 q 92 111 110 94 q 127 78 158 65 q 188 52 238 52 l 238 367 q 205 378 174 390 q 142 403 116 422 q 90 442 75 473 q 60 504 60 552 q 60 600 76 631 q 92 662 118 680 q 144 699 176 708 q 207 718 238 719 l 238 750 q 238 757 244 762 q 251 768 259 768 q 267 768 273 762 q 279 757 279 750 l 279 720 q 307 719 334 714 q 360 709 381 701 q 402 693 414 684 q 426 674 426 664 q 426 659 423 652 q 420 646 415 640 q 410 635 403 635 q 396 635 382 644 q 367 652 342 661 q 317 670 279 672 l 279 406 q 310 395 340 380 q 369 365 392 342 q 416 320 430 285 q 444 250 444 198 q 444 108 398 61 q 352 14 279 6 l 279 -34 q 279 -41 273 -46 q 267 -52 259 -52 z m 278 55 q 336 63 366 98 q 396 134 396 194 q 396 242 380 272 q 363 302 336 321 q 310 340 278 352 z m 240 420 l 240 672 q 206 670 176 658 q 146 647 127 623 q 108 599 108 557 q 108 514 126 488 q 145 461 175 446 q 205 432 240 420 z"},"?":{"x_min":0,"x_max":391,"ha":391,"o":"m 165 155 q 156 155 150 160 q 144 165 144 178 q 144 236 148 270 q 153 304 162 323 q 171 342 182 356 q 199 374 220 393 q 241 412 262 436 q 282 459 296 490 q 309 521 309 563 q 309 627 273 664 q 237 702 166 702 q 134 702 114 696 q 93 689 80 680 q 68 671 60 664 q 51 657 44 657 q 38 657 31 664 q 24 670 24 679 q 24 694 44 709 q 65 724 98 735 q 131 746 170 746 q 232 746 273 722 q 314 698 334 658 q 355 617 355 566 q 355 517 339 481 q 323 445 300 418 q 278 391 255 370 q 232 350 217 332 q 203 315 196 294 q 190 272 188 244 q 187 215 187 175 q 187 165 181 160 q 175 155 165 155 z m 165 -6 q 147 -6 136 6 q 124 19 124 35 q 124 52 136 64 q 148 76 165 76 q 181 76 193 64 q 205 52 205 35 q 205 19 194 6 q 182 -6 165 -6 z"},"<":{"x_min":0,"x_max":399,"ha":399,"o":"m 324 71 q 319 71 314 75 l 41 255 q 36 258 32 264 q 29 270 29 277 q 29 284 33 290 q 37 297 41 300 l 314 480 q 319 484 324 484 q 333 484 341 478 q 349 471 349 460 q 349 448 339 442 l 90 277 l 339 113 q 349 107 349 95 q 349 85 341 78 q 333 71 324 71 z"},"'":{"x_min":0,"x_max":137,"ha":137,"o":"m 68 578 q 59 578 55 584 q 51 591 51 599 l 41 749 q 41 758 50 763 q 60 768 68 768 q 78 768 88 763 q 97 758 97 749 l 87 599 q 87 591 82 584 q 78 578 68 578 z"},"=":{"x_min":0,"x_max":433,"ha":433,"o":"m 90 352 q 82 352 76 358 q 70 365 70 374 q 70 384 76 391 q 82 398 90 398 l 342 398 q 350 398 356 391 q 363 384 363 374 q 363 365 356 358 q 350 352 342 352 z m 90 149 q 82 149 76 156 q 70 162 70 171 q 70 181 76 188 q 82 195 90 195 l 342 195 q 350 195 356 188 q 363 181 363 171 q 363 162 356 156 q 350 149 342 149 z"},"a":{"x_min":0,"x_max":430,"ha":430,"o":"m 171 -6 q 113 -6 73 26 q 33 59 33 126 q 33 179 62 208 q 92 237 144 248 q 197 260 266 260 l 320 260 l 320 286 q 320 321 308 355 q 295 389 268 411 q 240 433 194 433 q 162 433 142 426 q 121 420 108 412 q 96 405 89 405 q 79 405 73 414 q 67 424 67 432 q 67 444 86 454 q 106 465 136 472 q 166 478 196 478 q 261 478 298 450 q 336 423 352 380 q 369 336 369 286 l 369 21 q 369 13 362 6 q 356 0 345 0 q 335 0 328 6 q 321 13 321 21 l 321 70 q 296 41 258 18 q 221 -6 171 -6 z m 178 38 q 213 38 246 56 q 278 73 299 98 q 320 124 320 146 l 320 220 l 271 220 q 222 220 179 214 q 136 209 109 190 q 82 170 82 128 q 82 81 110 60 q 138 38 178 38 z"},"L":{"x_min":0,"x_max":457,"ha":457,"o":"m 103 0 q 94 0 87 6 q 80 11 80 21 l 80 711 q 80 721 88 726 q 95 731 105 731 q 114 731 122 726 q 130 721 130 711 l 130 48 l 425 48 q 434 48 438 40 q 443 33 443 24 q 443 15 438 8 q 434 0 425 0 z"},"3":{"x_min":0,"x_max":480,"ha":480,"o":"m 233 -6 q 182 -6 144 9 q 106 24 80 48 q 55 71 43 99 q 31 127 31 155 q 31 174 37 180 q 43 186 54 186 q 69 186 74 179 q 80 172 80 161 q 80 146 86 126 q 93 105 110 86 q 126 67 156 54 q 185 42 230 42 q 304 42 344 81 q 384 120 384 202 l 384 221 q 384 293 343 328 q 302 363 233 363 q 221 363 216 370 q 211 377 211 386 q 211 395 216 402 q 221 409 232 409 q 276 409 306 422 q 336 435 351 465 q 366 495 366 545 q 366 614 336 649 q 305 684 236 684 q 193 684 166 672 q 139 660 124 642 q 109 623 104 604 q 98 584 98 567 q 98 555 92 547 q 86 539 74 539 q 65 539 59 542 q 53 545 51 553 q 49 561 49 573 q 49 592 57 619 q 65 646 85 672 q 105 697 142 714 q 180 731 239 731 q 291 731 330 714 q 370 697 392 659 q 415 621 415 556 q 415 485 390 444 q 366 403 332 386 q 376 367 405 328 q 434 289 434 221 l 434 202 q 434 127 407 81 q 380 35 334 14 q 289 -6 233 -6 z"},";":{"x_min":0,"x_max":198,"ha":198,"o":"m 86 -80 q 79 -80 72 -76 q 66 -72 66 -64 q 66 -59 67 -55 l 86 -4 q 74 0 66 11 q 58 22 58 35 q 58 52 70 64 q 81 76 98 76 q 113 76 126 65 q 138 54 138 34 q 138 32 138 27 q 137 22 134 12 q 130 1 123 -18 q 116 -37 104 -69 q 101 -74 96 -77 q 91 -80 86 -80 z m 100 340 q 82 340 70 352 q 59 365 59 381 q 59 398 70 410 q 82 422 100 422 q 116 422 128 410 q 140 398 140 381 q 140 365 128 352 q 116 340 100 340 z"},"J":{"x_min":0,"x_max":502,"ha":502,"o":"m 226 -6 q 164 -6 118 16 q 73 39 48 78 q 24 116 24 164 q 24 179 30 184 q 37 190 48 190 q 58 190 66 185 q 73 180 74 169 q 74 128 94 99 q 113 70 148 56 q 182 42 225 42 q 297 42 336 82 q 376 121 376 203 l 376 683 l 226 683 q 216 683 210 691 q 205 699 205 708 q 205 716 210 724 q 215 731 226 731 l 402 731 q 412 731 419 726 q 426 720 426 710 l 426 203 q 426 127 400 82 q 373 36 328 15 q 282 -6 226 -6 z"},"V":{"x_min":0,"x_max":527,"ha":527,"o":"m 264 -6 q 255 -6 247 -2 q 239 3 236 12 l 23 703 q 22 706 22 709 q 22 716 26 720 q 30 725 36 728 q 43 731 49 731 q 57 731 63 728 q 69 724 71 716 l 264 84 l 456 716 q 458 724 464 728 q 470 731 476 731 q 483 731 490 728 q 496 725 500 720 q 505 715 505 709 q 505 707 504 706 q 504 705 504 703 l 293 12 q 290 3 282 -2 q 273 -6 264 -6 z"},"\"":{"x_min":0,"x_max":262,"ha":262,"o":"m 193 578 q 184 578 180 584 q 175 591 175 599 l 165 749 q 165 758 174 763 q 184 768 193 768 q 202 768 212 763 q 221 758 221 749 l 211 599 q 211 591 207 584 q 203 578 193 578 z m 68 578 q 59 578 55 584 q 51 591 51 599 l 41 749 q 41 758 50 763 q 60 768 68 768 q 78 768 88 763 q 97 758 97 749 l 87 599 q 87 591 82 584 q 78 578 68 578 z"},"7":{"x_min":0,"x_max":450,"ha":450,"o":"m 101 -1 q 94 -1 87 2 q 80 4 76 10 q 72 15 72 22 q 72 28 75 35 l 383 632 l 383 683 l 81 683 l 81 560 q 81 551 73 544 q 65 538 55 538 q 46 538 38 544 q 31 551 31 560 l 31 710 q 31 718 38 724 q 45 731 54 731 l 409 731 q 417 731 425 724 q 433 718 433 710 l 433 631 q 433 627 432 622 q 431 618 428 613 l 120 11 q 114 -1 101 -1 z"},"S":{"x_min":0,"x_max":487,"ha":487,"o":"m 238 -6 q 174 -6 130 13 q 85 32 62 58 q 39 83 39 98 q 39 104 43 111 q 47 118 52 122 q 57 126 62 126 q 71 126 80 114 q 90 101 107 84 q 124 67 154 54 q 184 42 233 42 q 284 42 320 59 q 355 76 374 110 q 392 143 392 192 q 392 244 374 276 q 355 307 326 326 q 296 346 260 358 q 225 371 190 384 q 154 397 124 416 q 94 436 76 469 q 57 502 57 555 q 57 609 76 644 q 96 678 127 698 q 158 717 193 724 q 228 732 261 732 q 291 732 320 727 q 348 722 372 714 q 396 707 410 697 q 424 687 424 676 q 424 670 421 664 q 418 657 413 652 q 408 647 401 647 q 393 647 377 656 q 361 666 333 676 q 305 685 260 685 q 224 685 188 674 q 153 663 130 636 q 107 609 107 559 q 107 516 126 490 q 144 464 174 448 q 204 432 239 420 q 274 409 310 394 q 346 379 376 356 q 405 333 424 295 q 442 257 442 197 q 442 126 416 81 q 389 36 344 15 q 298 -6 238 -6 z"},"}":{"x_min":0,"x_max":296,"ha":296,"o":"m 44 -20 q 34 -20 26 -14 q 19 -7 19 4 q 19 9 21 14 q 23 18 27 22 q 31 26 40 26 q 56 26 79 31 q 102 36 124 48 q 145 60 160 80 q 174 100 174 131 q 174 145 171 176 q 168 207 164 242 q 160 277 157 306 q 154 335 154 344 q 154 361 166 371 q 178 381 188 384 q 178 386 166 397 q 154 408 154 425 q 154 432 157 456 q 160 480 164 509 q 168 538 171 564 q 174 589 174 600 q 174 633 156 660 q 139 688 108 705 q 78 722 40 722 q 31 722 25 729 q 19 736 19 745 q 19 754 26 761 q 32 768 44 768 q 81 768 114 755 q 146 742 171 719 q 196 696 210 667 q 224 638 224 605 q 224 594 221 568 q 218 541 214 512 q 210 482 207 458 q 204 435 204 427 q 204 415 213 412 q 222 409 234 408 q 246 407 255 402 q 264 398 264 384 q 264 371 255 366 q 246 362 234 361 q 222 360 213 357 q 204 354 204 342 q 204 336 206 316 q 208 296 212 268 q 215 241 218 213 q 220 185 222 163 q 224 141 224 131 q 224 86 200 52 q 175 18 134 -1 q 94 -20 44 -20 z"},"Z":{"x_min":0,"x_max":472,"ha":472,"o":"m 46 0 q 37 0 31 6 q 25 12 25 20 q 25 28 30 37 l 372 683 l 57 683 q 47 683 42 690 q 36 698 36 707 q 36 716 42 724 q 47 731 57 731 l 416 731 q 427 731 432 726 q 437 721 437 713 q 437 703 431 692 l 90 48 l 427 48 q 438 48 443 40 q 448 33 448 24 q 448 15 443 8 q 438 0 427 0 z"},"x":{"x_min":0,"x_max":394,"ha":394,"o":"m 54 -6 q 47 -6 41 -2 q 35 1 30 6 q 26 12 26 18 q 26 24 30 29 l 166 239 l 31 443 q 30 445 28 448 q 27 451 27 453 q 27 460 32 466 q 36 471 42 474 q 49 478 55 478 q 60 478 65 476 q 70 474 72 470 l 197 278 l 323 469 q 326 474 330 476 q 335 478 340 478 q 346 478 352 475 q 359 472 364 466 q 368 461 368 453 q 368 449 364 443 l 228 238 l 365 29 q 367 27 368 24 q 369 21 369 18 q 369 12 365 6 q 361 1 354 -2 q 348 -6 341 -6 q 337 -6 332 -4 q 327 -2 325 2 l 197 198 l 71 2 q 68 -2 64 -4 q 59 -6 54 -6 z"},")":{"x_min":0,"x_max":287,"ha":287,"o":"m 44 -20 q 32 -20 26 -14 q 19 -7 19 4 q 19 11 24 19 q 28 27 40 27 q 70 27 100 36 q 131 45 152 72 q 173 98 173 146 l 173 588 q 173 621 158 652 q 142 682 112 702 q 82 721 40 721 q 31 721 25 728 q 19 735 19 745 q 19 755 26 762 q 32 768 43 768 q 82 768 114 754 q 147 739 172 714 q 196 689 210 656 q 223 624 223 588 l 223 146 q 223 107 210 76 q 196 44 172 23 q 148 2 116 -9 q 83 -20 44 -20 z"},"&":{"x_min":0,"x_max":602,"ha":602,"o":"m 262 -10 q 191 -10 141 19 q 91 48 64 96 q 38 144 38 201 q 38 253 58 292 q 79 331 111 358 q 143 385 177 399 q 146 436 120 478 q 93 521 93 581 q 93 634 117 672 q 141 709 180 728 q 220 748 267 748 q 320 748 354 730 q 388 712 405 690 q 422 669 422 657 q 422 647 415 640 q 408 634 398 634 q 390 634 382 644 q 374 655 361 670 q 348 684 326 694 q 305 705 270 705 q 213 705 180 670 q 147 635 147 577 q 147 541 160 511 q 173 481 194 454 q 215 427 238 401 l 452 165 q 474 216 480 270 q 487 324 489 360 q 489 373 494 378 q 499 384 512 384 q 523 384 528 377 q 533 370 533 355 q 533 336 530 299 q 526 262 516 218 q 506 173 484 130 l 579 28 q 581 24 582 20 q 584 17 584 15 q 584 6 577 0 q 570 -6 562 -6 q 558 -6 554 -4 q 551 -3 547 1 l 461 93 q 431 49 382 20 q 334 -10 262 -10 z m 269 37 q 330 37 368 62 q 406 87 429 126 l 206 366 q 182 353 155 333 q 128 313 108 282 q 89 252 89 206 q 89 162 110 123 q 131 84 172 60 q 212 37 269 37 z"},"_":{"x_min":0,"x_max":340,"ha":340,"o":"m 11 -46 q 2 -46 -4 -40 q -10 -33 -10 -23 q -10 -13 -4 -6 q 2 0 11 0 l 331 0 q 339 0 346 -6 q 352 -13 352 -23 q 352 -33 346 -40 q 339 -46 331 -46 z"},"v":{"x_min":0,"x_max":405,"ha":405,"o":"m 203 -7 q 194 -7 188 -4 q 182 0 179 7 l 21 435 q 20 437 18 442 q 17 447 17 450 q 17 456 22 462 q 26 467 32 470 q 38 473 45 473 q 51 473 57 470 q 63 467 65 461 l 203 83 l 339 455 q 341 462 345 468 q 349 473 359 473 q 365 473 372 470 q 378 468 383 462 q 388 457 388 451 q 388 446 386 442 q 385 438 384 435 l 226 7 q 223 1 217 -3 q 211 -7 203 -7 z"},"O":{"x_min":0,"x_max":548,"ha":548,"o":"m 273 -6 q 217 -6 172 15 q 126 36 100 82 q 73 127 73 203 l 73 522 q 73 598 100 644 q 126 689 172 710 q 217 731 273 731 q 330 731 376 710 q 422 689 448 644 q 475 598 475 522 l 475 203 q 475 127 448 82 q 422 36 376 15 q 330 -6 273 -6 z m 273 42 q 344 42 384 82 q 425 121 425 203 l 425 522 q 425 604 385 644 q 345 683 273 683 q 202 683 162 644 q 122 604 122 522 l 122 203 q 122 121 162 82 q 202 42 273 42 z"},"(":{"x_min":0,"x_max":287,"ha":287,"o":"m 244 -20 q 205 -20 172 -9 q 139 2 115 23 q 91 44 78 76 q 64 107 64 146 l 64 588 q 64 624 78 656 q 91 689 116 714 q 140 739 172 754 q 205 768 244 768 q 256 768 262 762 q 268 755 268 745 q 268 735 262 728 q 256 721 248 721 q 205 721 175 702 q 145 682 130 652 q 114 621 114 588 l 114 146 q 114 98 136 72 q 157 45 188 36 q 219 27 248 27 q 260 27 264 19 q 268 11 268 4 q 268 -7 262 -14 q 255 -20 244 -20 z"},"C":{"x_min":0,"x_max":518,"ha":518,"o":"m 274 -6 q 219 -6 173 15 q 127 36 100 82 q 73 127 73 203 l 73 522 q 73 598 101 644 q 129 689 175 710 q 221 731 276 731 q 341 731 385 708 q 429 685 452 648 q 475 611 475 569 q 475 549 469 542 q 463 536 450 536 q 435 536 430 543 q 425 550 425 557 q 424 574 418 596 q 412 617 396 637 q 381 657 352 670 q 323 683 276 683 q 201 683 162 644 q 122 604 122 522 l 122 203 q 122 120 162 81 q 202 42 280 42 q 327 42 355 54 q 383 67 397 86 q 411 106 416 128 q 422 151 425 169 q 426 178 432 184 q 437 190 450 190 q 463 190 469 183 q 475 176 475 156 q 475 115 452 78 q 429 40 384 17 q 339 -6 274 -6 z"},"W":{"x_min":0,"x_max":760,"ha":760,"o":"m 250 -6 q 240 -6 232 -2 q 224 3 222 12 l 24 703 q 23 706 23 710 q 23 717 27 722 q 31 726 38 728 q 44 731 50 731 q 58 731 64 727 q 71 723 73 716 l 249 84 l 352 463 q 356 475 364 479 q 371 483 380 483 q 391 483 398 479 q 404 475 407 463 l 512 84 l 687 716 q 690 723 696 727 q 703 731 710 731 q 717 731 723 728 q 729 726 733 722 q 737 717 737 710 q 737 706 736 703 l 540 12 q 537 3 530 -2 q 522 -6 511 -6 q 502 -6 494 -2 q 486 3 484 12 l 380 386 l 278 12 q 276 3 268 -2 q 260 -6 250 -6 z"},"A":{"x_min":0,"x_max":529,"ha":529,"o":"m 50 0 q 44 0 38 3 q 31 6 27 10 q 23 15 23 22 q 23 25 24 28 l 237 719 q 240 729 248 733 q 256 737 265 737 q 274 737 282 732 q 291 728 294 719 l 505 28 q 506 25 506 22 q 506 17 502 12 q 497 6 490 3 q 484 0 477 0 q 470 0 464 4 q 459 7 457 15 l 408 174 l 120 174 l 72 15 q 70 7 64 4 q 58 0 50 0 z m 134 220 l 394 220 l 265 647 z"},"f":{"x_min":0,"x_max":297,"ha":297,"o":"m 89 0 q 79 0 72 6 q 66 12 66 20 l 66 585 q 66 634 90 675 q 115 716 156 741 q 196 766 244 766 l 261 766 q 272 766 278 759 q 284 752 284 742 q 284 733 278 726 q 272 720 261 720 l 248 720 q 211 720 181 701 q 151 682 134 652 q 116 622 115 587 l 115 472 l 264 472 q 273 472 278 466 q 284 460 284 451 q 284 442 278 436 q 273 429 264 429 l 115 429 l 115 20 q 115 12 108 6 q 100 0 89 0 z"},"Q":{"x_min":0,"x_max":548,"ha":548,"o":"m 274 -109 q 266 -109 260 -104 q 253 -98 253 -88 l 253 -5 q 201 -1 160 20 q 119 42 96 87 q 73 132 73 203 l 73 522 q 73 598 100 644 q 126 689 172 710 q 217 731 273 731 q 330 731 376 710 q 422 689 448 644 q 475 598 475 522 l 475 203 q 475 132 452 87 q 429 42 388 20 q 347 -1 296 -5 l 296 -88 q 296 -98 289 -104 q 282 -109 274 -109 z m 253 43 l 253 122 q 253 133 260 138 q 266 143 274 143 q 282 143 289 138 q 296 133 296 122 l 296 44 q 356 49 390 88 q 425 127 425 203 l 425 522 q 425 604 384 644 q 344 683 273 683 q 202 683 162 644 q 122 604 122 522 l 122 203 q 122 127 156 88 q 191 49 253 43 z"},"w":{"x_min":0,"x_max":660,"ha":660,"o":"m 199 -7 q 190 -7 186 -3 q 181 1 177 11 l 21 436 q 20 439 18 444 q 17 448 17 450 q 17 457 21 462 q 25 467 32 470 q 38 473 45 473 q 51 473 57 470 q 63 467 65 461 l 200 86 l 309 430 q 311 438 317 442 q 323 445 331 445 q 339 445 344 442 q 350 438 353 430 l 458 81 l 596 461 q 599 473 615 473 q 621 473 628 470 q 634 468 638 463 q 642 458 642 451 q 642 448 641 443 q 640 438 638 436 l 482 7 q 479 -1 474 -4 q 468 -7 462 -7 q 454 -7 450 -4 q 445 -1 442 6 l 331 358 l 221 11 q 218 2 212 -2 q 207 -7 199 -7 z"},"-":{"x_min":0,"x_max":397,"ha":397,"o":"m 68 218 q 60 218 54 224 q 48 231 48 240 q 48 250 54 256 q 60 263 68 263 l 328 263 q 337 263 344 256 q 350 250 350 240 q 350 231 344 224 q 337 218 328 218 z"},"E":{"x_min":0,"x_max":503,"ha":503,"o":"m 103 0 q 94 0 87 6 q 80 11 80 21 l 80 710 q 80 720 87 726 q 94 731 103 731 l 459 731 q 470 731 475 724 q 480 716 480 708 q 480 699 474 691 q 469 683 459 683 l 130 683 l 130 389 l 288 389 q 298 389 304 382 q 309 375 309 365 q 309 357 304 350 q 299 343 288 343 l 130 343 l 130 48 l 459 48 q 469 48 474 40 q 480 33 480 23 q 480 15 475 8 q 470 0 459 0 z"},"s":{"x_min":0,"x_max":380,"ha":380,"o":"m 187 -6 q 141 -6 108 6 q 74 17 55 32 q 36 48 36 62 q 36 67 38 72 q 41 77 46 81 q 50 85 54 85 q 64 85 77 74 q 90 62 115 50 q 140 38 186 38 q 246 38 271 61 q 296 84 296 115 q 296 151 278 172 q 261 192 232 203 q 203 214 172 222 q 140 231 111 244 q 82 257 64 281 q 46 305 46 346 q 46 376 62 407 q 78 438 112 458 q 145 478 199 478 q 231 478 260 472 q 289 465 308 454 q 327 444 327 433 q 327 429 324 422 q 321 416 316 412 q 312 407 305 407 q 298 407 285 414 q 272 421 251 428 q 230 434 200 434 q 161 434 138 420 q 114 406 104 386 q 93 366 93 347 q 93 317 111 300 q 129 283 158 274 q 186 264 218 255 q 250 246 278 231 q 307 216 325 190 q 343 163 343 117 q 343 61 302 28 q 261 -6 187 -6 z"},">":{"x_min":0,"x_max":399,"ha":399,"o":"m 75 71 q 66 71 58 78 q 50 85 50 95 q 50 107 60 113 l 309 277 l 60 442 q 50 448 50 460 q 50 471 58 478 q 66 484 75 484 q 81 484 85 480 l 358 300 q 362 297 366 290 q 370 284 370 277 q 370 270 366 264 q 363 258 358 255 l 85 75 q 81 71 75 71 z"},"l":{"x_min":0,"x_max":198,"ha":198,"o":"m 98 0 q 88 0 81 6 q 74 13 74 21 l 74 745 q 74 755 81 760 q 88 766 98 766 q 109 766 116 760 q 123 755 123 745 l 123 21 q 123 13 116 6 q 109 0 98 0 z"},"8":{"x_min":0,"x_max":496,"ha":496,"o":"m 248 -6 q 192 -6 146 14 q 100 35 73 80 q 46 126 46 200 l 46 212 q 46 289 76 334 q 106 379 153 398 q 114 415 90 454 q 66 492 66 557 q 66 623 90 661 q 114 699 156 715 q 197 731 248 731 q 300 731 341 715 q 382 699 406 661 q 430 623 430 557 q 430 492 406 454 q 382 415 344 398 q 392 379 420 334 q 449 289 449 212 l 449 200 q 449 126 422 80 q 396 35 350 14 q 305 -6 248 -6 z m 249 40 q 320 40 360 80 q 399 120 399 202 l 399 215 q 399 297 359 336 q 319 374 248 374 q 178 374 137 336 q 96 297 96 215 l 96 202 q 96 119 137 80 q 178 40 249 40 z m 248 421 q 311 421 346 452 q 381 483 381 554 q 381 624 346 654 q 311 685 248 685 q 186 685 150 654 q 115 624 115 554 q 115 483 150 452 q 186 421 248 421 z"},"\\":{"x_min":0,"x_max":345,"ha":345,"o":"m 297 0 q 291 0 285 3 q 279 6 277 14 l 28 723 q 27 726 27 731 q 27 742 34 748 q 41 754 49 754 q 56 754 61 752 q 66 749 67 743 l 318 26 q 319 25 319 24 q 319 22 319 19 q 319 11 312 6 q 306 0 297 0 z"},"e":{"x_min":0,"x_max":451,"ha":451,"o":"m 256 -6 q 195 -6 148 17 q 102 40 75 82 q 48 123 48 179 l 48 298 q 48 347 74 388 q 99 429 140 454 q 182 478 232 478 q 281 478 322 454 q 363 431 388 390 q 414 350 414 297 q 414 260 402 244 q 389 227 370 224 q 351 220 329 220 l 97 220 l 97 178 q 97 114 143 76 q 189 39 258 39 q 299 39 321 49 q 343 59 355 69 q 367 79 377 79 q 384 79 389 75 q 394 71 397 66 q 400 60 400 55 q 400 45 382 30 q 365 15 333 4 q 301 -6 256 -6 z m 97 261 l 310 261 q 344 261 355 268 q 366 275 366 297 q 366 331 350 362 q 333 394 302 414 q 272 434 232 434 q 194 434 164 416 q 133 398 115 368 q 97 338 97 302 z"},"b":{"x_min":0,"x_max":476,"ha":476,"o":"m 251 -6 q 204 -6 168 16 q 131 39 114 70 l 114 21 q 114 13 108 6 q 101 0 90 0 q 80 0 73 6 q 66 13 66 21 l 66 745 q 66 755 73 760 q 80 766 90 766 q 101 766 108 760 q 115 755 115 745 l 115 402 q 132 431 166 454 q 199 478 248 478 q 297 478 338 454 q 379 429 404 388 q 428 346 428 295 l 428 179 q 428 131 404 88 q 379 46 338 20 q 298 -6 251 -6 z m 246 40 q 282 40 312 60 q 342 80 360 112 q 379 144 379 179 l 379 295 q 379 330 360 361 q 342 392 312 412 q 282 432 245 432 q 213 432 183 416 q 153 399 134 368 q 115 338 115 295 l 115 145 q 115 129 132 104 q 150 79 180 60 q 209 40 246 40 z"},"%":{"x_min":0,"x_max":749,"ha":749,"o":"m 185 -23 q 177 -23 171 -18 q 165 -12 165 -4 q 165 3 167 7 l 553 758 q 558 768 570 768 q 577 768 584 762 q 592 755 592 746 q 592 740 589 734 l 206 -10 q 202 -17 196 -20 q 191 -23 185 -23 z m 162 357 q 112 357 78 382 q 43 407 43 467 l 43 621 q 43 681 78 706 q 112 731 162 731 q 197 731 224 720 q 250 709 266 685 q 282 661 282 621 l 282 467 q 282 427 266 403 q 250 379 224 368 q 197 357 162 357 z m 163 395 q 199 395 220 412 q 241 430 241 467 l 241 621 q 241 658 220 676 q 199 693 163 693 q 126 693 106 676 q 85 658 85 621 l 85 467 q 85 430 106 412 q 126 395 163 395 z m 586 -3 q 535 -3 501 22 q 467 47 467 107 l 467 261 q 467 321 501 346 q 535 371 586 371 q 620 371 647 360 q 674 349 690 325 q 705 301 705 261 l 705 107 q 705 67 690 43 q 674 19 647 8 q 620 -3 586 -3 z m 586 35 q 622 35 643 52 q 664 70 664 107 l 664 261 q 664 298 643 316 q 622 333 586 333 q 550 333 530 316 q 509 298 509 261 l 509 107 q 509 70 530 52 q 550 35 586 35 z"},"m":{"x_min":0,"x_max":772,"ha":772,"o":"m 89 0 q 79 0 72 6 q 65 13 65 21 l 65 452 q 65 461 72 466 q 79 472 89 472 q 100 472 106 466 q 113 461 113 452 l 113 402 q 130 431 164 454 q 197 478 247 478 q 298 478 336 450 q 375 422 393 378 q 419 429 460 454 q 502 478 545 478 q 588 478 626 457 q 663 436 687 395 q 711 354 711 295 l 711 21 q 711 13 704 6 q 697 0 686 0 q 676 0 669 6 q 662 13 662 21 l 662 295 q 662 340 644 370 q 625 401 597 416 q 569 432 539 432 q 507 432 478 416 q 450 399 432 370 q 413 340 413 300 l 413 20 q 413 10 405 5 q 397 0 388 0 q 379 0 372 5 q 364 10 364 20 l 364 299 q 364 338 347 368 q 330 397 303 414 q 276 432 242 432 q 211 432 182 416 q 152 399 133 369 q 114 339 114 295 l 114 21 q 114 13 107 6 q 100 0 89 0 z"},"#":{"x_min":0,"x_max":567,"ha":567,"o":"m 145 35 q 136 35 129 41 q 122 47 122 58 l 152 261 l 52 261 q 40 261 36 266 q 31 272 31 281 q 31 289 36 295 q 40 301 46 301 l 160 301 l 185 470 l 84 470 q 73 470 68 476 q 63 481 63 490 q 63 499 68 504 q 72 510 79 510 l 192 510 l 222 700 q 223 707 228 710 q 234 713 240 713 q 252 713 258 706 q 265 699 265 689 l 237 510 l 368 510 l 397 700 q 399 707 404 710 q 410 713 416 713 q 427 713 434 706 q 441 699 441 689 l 413 510 l 515 510 q 522 510 530 505 q 537 500 537 490 q 537 482 532 476 q 527 470 520 470 l 407 470 l 380 301 l 483 301 q 490 301 498 296 q 505 290 505 280 q 505 273 500 267 q 494 261 488 261 l 373 261 l 342 52 q 340 44 334 40 q 327 35 320 35 q 314 35 308 38 q 303 41 300 46 q 296 51 296 58 l 327 261 l 197 261 l 166 53 q 164 44 158 40 q 152 35 145 35 z m 204 301 l 335 301 l 361 470 l 231 470 z"},",":{"x_min":0,"x_max":166,"ha":166,"o":"m 71 -80 q 64 -80 58 -76 q 51 -72 51 -64 q 51 -59 52 -55 l 71 -4 q 58 0 50 11 q 42 22 42 35 q 42 52 54 64 q 65 76 82 76 q 97 76 110 65 q 123 54 123 34 q 123 32 122 27 q 122 22 118 12 q 115 1 108 -18 q 101 -37 88 -69 q 86 -74 81 -77 q 76 -80 71 -80 z"},"n":{"x_min":0,"x_max":487,"ha":487,"o":"m 89 0 q 79 0 72 6 q 65 13 65 21 l 65 452 q 65 461 72 466 q 79 472 89 472 q 100 472 106 466 q 113 461 113 452 l 113 402 q 130 431 164 454 q 197 478 247 478 q 296 478 336 454 q 377 429 402 388 q 426 346 426 295 l 426 21 q 426 11 418 6 q 411 0 401 0 q 393 0 385 6 q 377 11 377 21 l 377 295 q 377 330 358 361 q 340 392 310 412 q 280 432 243 432 q 211 432 182 416 q 152 399 133 368 q 114 338 114 295 l 114 21 q 114 13 107 6 q 100 0 89 0 z"},"h":{"x_min":0,"x_max":488,"ha":488,"o":"m 90 0 q 80 0 73 6 q 66 13 66 21 l 66 745 q 66 755 73 760 q 80 766 90 766 q 101 766 108 760 q 115 755 115 745 l 115 402 q 132 431 166 454 q 199 478 248 478 q 297 478 338 454 q 378 429 402 388 q 427 346 427 295 l 427 21 q 427 11 420 6 q 412 0 402 0 q 394 0 386 6 q 378 11 378 21 l 378 295 q 378 330 360 361 q 341 392 311 412 q 281 432 244 432 q 212 432 182 416 q 153 399 134 368 q 115 338 115 295 l 115 21 q 115 13 108 6 q 101 0 90 0 z"},"z":{"x_min":0,"x_max":392,"ha":392,"o":"m 47 0 q 37 0 31 6 q 25 12 25 20 q 25 24 27 30 q 29 35 32 38 l 288 427 l 56 427 q 47 427 41 434 q 35 440 35 449 q 35 459 41 466 q 47 472 56 472 l 335 472 q 345 472 351 466 q 357 461 357 451 q 357 442 351 434 l 94 45 l 347 45 q 356 45 362 38 q 368 32 368 22 q 368 13 362 6 q 356 0 347 0 z"},"B":{"x_min":0,"x_max":532,"ha":532,"o":"m 103 0 q 93 0 86 6 q 80 12 80 20 l 80 710 q 80 720 87 726 q 94 731 103 731 l 260 731 q 317 731 364 718 q 410 705 437 669 q 464 633 464 563 q 464 499 441 456 q 418 413 379 396 q 410 383 433 362 q 456 341 469 308 q 482 274 482 222 l 482 204 q 482 129 456 84 q 430 39 386 20 q 341 0 286 0 z m 129 48 l 282 48 q 352 48 392 86 q 432 123 432 206 l 432 223 q 432 306 392 340 q 352 373 282 373 l 129 373 z m 129 419 l 265 419 q 341 419 378 450 q 414 480 414 559 q 414 611 394 638 q 375 664 340 674 q 306 683 260 683 l 129 683 z"},"K":{"x_min":0,"x_max":515,"ha":515,"o":"m 105 0 q 95 0 88 6 q 80 11 80 21 l 80 711 q 80 721 88 726 q 95 731 105 731 q 114 731 122 726 q 130 721 130 711 l 130 336 l 437 723 q 443 731 454 731 q 461 731 467 728 q 473 724 477 718 q 481 712 481 705 q 481 702 480 698 q 478 695 476 693 l 253 415 l 505 35 q 508 30 508 24 q 508 18 504 12 q 501 6 494 2 q 488 -1 481 -1 q 475 -1 470 2 q 465 5 461 11 l 219 373 l 130 261 l 130 21 q 130 11 122 6 q 114 0 105 0 z"},"R":{"x_min":0,"x_max":518,"ha":518,"o":"m 457 -1 q 446 -1 438 12 q 431 24 425 34 l 268 341 l 130 341 l 130 21 q 130 11 122 6 q 114 0 105 0 q 95 0 88 6 q 80 11 80 21 l 80 711 q 80 719 86 724 q 91 730 101 731 l 273 731 q 329 731 377 714 q 425 696 454 654 q 483 611 483 537 q 483 474 462 434 q 440 394 404 374 q 367 353 321 346 l 481 36 q 483 33 484 30 q 484 27 484 25 q 484 18 480 12 q 476 7 470 3 q 464 -1 457 -1 z m 130 387 l 273 387 q 344 387 388 422 q 433 456 433 536 q 433 615 388 649 q 344 683 273 683 l 130 683 z"},"T":{"x_min":0,"x_max":465,"ha":465,"o":"m 233 0 q 223 0 216 6 q 208 11 208 21 l 208 683 l 35 683 q 25 683 19 690 q 13 698 13 707 q 13 716 19 724 q 25 731 35 731 l 430 731 q 441 731 446 724 q 452 717 452 708 q 452 698 447 690 q 442 683 430 683 l 258 683 l 258 21 q 258 11 250 6 q 243 0 233 0 z"},"P":{"x_min":0,"x_max":520,"ha":520,"o":"m 105 0 q 95 0 88 6 q 80 11 80 21 l 80 711 q 80 719 86 724 q 92 730 102 731 l 283 731 q 339 731 384 710 q 430 690 456 644 q 483 598 483 522 l 483 511 q 483 435 456 389 q 430 343 384 322 q 338 301 282 301 l 130 301 l 130 21 q 130 11 122 6 q 114 0 105 0 z m 130 347 l 282 347 q 353 347 393 387 q 433 427 433 510 l 433 522 q 433 604 393 644 q 353 683 282 683 l 130 683 z"},"|":{"x_min":0,"x_max":192,"ha":192,"o":"m 96 -21 q 86 -21 78 -15 q 71 -9 71 0 l 71 748 q 71 756 78 762 q 86 768 96 768 q 106 768 114 762 q 121 756 121 748 l 121 0 q 121 -9 114 -15 q 106 -21 96 -21 z"},"t":{"x_min":0,"x_max":283,"ha":283,"o":"m 215 0 q 141 0 102 34 q 63 68 63 142 l 63 680 q 63 690 71 696 q 79 701 87 701 q 97 701 104 696 q 112 690 112 680 l 112 472 l 245 472 q 253 472 258 466 q 264 460 264 450 q 264 442 258 436 q 253 429 245 429 l 112 429 l 112 142 q 112 90 136 68 q 159 46 215 46 l 240 46 q 251 46 257 40 q 263 33 263 23 q 263 14 257 7 q 251 0 240 0 z"},"M":{"x_min":0,"x_max":660,"ha":660,"o":"m 105 0 q 95 0 88 6 q 80 11 80 21 l 80 707 q 80 721 88 726 q 95 731 105 731 q 114 731 122 724 q 129 718 136 708 q 142 699 146 690 l 329 332 l 514 690 q 519 699 525 708 q 531 718 539 724 q 547 731 555 731 q 566 731 573 726 q 580 721 580 707 l 580 21 q 580 11 572 6 q 565 0 555 0 q 546 0 538 6 q 530 11 530 21 l 530 617 l 352 277 q 347 266 341 262 q 335 257 329 257 q 324 257 318 262 q 312 266 307 277 l 130 619 l 130 21 q 130 11 122 6 q 114 0 105 0 z"},"g":{"x_min":0,"x_max":450,"ha":450,"o":"m 228 -235 q 170 -235 125 -218 q 80 -202 55 -173 q 30 -144 30 -104 q 30 -59 57 -32 q 84 -6 118 6 q 92 15 76 30 q 60 45 60 76 q 60 104 74 120 q 87 136 109 147 q 83 169 70 202 q 56 234 56 273 l 56 314 q 56 362 76 399 q 97 436 134 457 q 172 478 222 478 q 258 478 288 466 q 318 455 340 433 q 354 461 374 478 q 395 495 413 495 q 426 495 432 488 q 438 481 438 472 q 438 463 433 458 q 428 453 420 452 q 408 451 392 442 q 376 433 362 407 q 376 389 382 365 q 389 341 389 314 l 389 273 q 389 226 368 188 q 347 150 308 128 q 270 107 221 107 q 176 107 141 126 q 128 119 117 110 q 106 100 106 82 q 106 58 128 48 q 151 38 187 34 q 223 30 262 26 q 302 21 338 10 q 374 -2 396 -26 q 419 -51 419 -96 q 419 -141 395 -172 q 371 -203 328 -219 q 285 -235 228 -235 z m 227 -195 q 296 -195 334 -168 q 371 -142 371 -98 q 371 -64 350 -46 q 329 -29 297 -22 q 265 -14 232 -12 q 199 -9 175 -6 q 137 -17 108 -38 q 78 -60 78 -99 q 78 -142 118 -168 q 157 -195 227 -195 z m 223 148 q 278 148 310 184 q 341 219 341 273 l 341 314 q 341 367 310 402 q 278 437 222 437 q 166 437 135 402 q 104 367 104 314 l 104 274 q 104 221 135 184 q 166 148 223 148 z"},"j":{"x_min":0,"x_max":181,"ha":181,"o":"m -11 -235 q -23 -235 -30 -228 q -36 -220 -36 -211 q -36 -201 -30 -195 q -23 -189 -14 -189 q 22 -189 39 -170 q 56 -152 61 -120 q 66 -87 66 -46 l 66 452 q 66 461 73 466 q 80 472 90 472 q 101 472 108 466 q 115 461 115 452 l 115 -46 q 115 -101 103 -144 q 91 -187 63 -211 q 35 -235 -11 -235 z m 90 621 q 75 621 64 632 q 52 643 52 658 q 52 673 64 683 q 75 693 90 693 q 106 693 116 683 q 127 673 127 658 q 127 643 116 632 q 106 621 90 621 z"},"i":{"x_min":0,"x_max":180,"ha":180,"o":"m 89 0 q 79 0 72 6 q 65 13 65 21 l 65 452 q 65 461 72 466 q 79 472 89 472 q 100 472 107 466 q 114 461 114 452 l 114 21 q 114 13 107 6 q 100 0 89 0 z m 89 621 q 74 621 62 632 q 51 643 51 658 q 51 673 62 683 q 74 693 89 693 q 105 693 116 683 q 126 673 126 658 q 126 643 116 632 q 105 621 89 621 z"},"y":{"x_min":0,"x_max":407,"ha":407,"o":"m 40 -235 q 31 -235 24 -229 q 17 -223 17 -212 q 17 -203 21 -196 q 25 -189 35 -189 q 60 -189 82 -172 q 103 -154 122 -124 q 140 -93 154 -57 q 169 -21 180 16 l 18 447 q 16 452 16 455 q 16 462 20 467 q 25 472 32 476 q 38 479 45 479 q 51 479 57 476 q 63 472 64 466 l 205 81 l 342 466 q 345 472 350 476 q 355 479 361 479 q 368 479 374 476 q 381 473 386 468 q 390 462 390 455 q 390 450 388 447 l 230 16 q 217 -23 200 -66 q 183 -110 160 -148 q 138 -186 108 -210 q 79 -235 40 -235 z"},"@":{"x_min":0,"x_max":712,"ha":712,"o":"m 328 -96 q 276 -96 228 -78 q 179 -59 141 -21 q 103 17 80 77 q 58 137 58 218 q 58 311 90 388 q 121 464 189 510 q 257 555 366 555 q 463 555 530 518 q 598 482 632 410 q 667 339 667 235 q 667 185 656 140 q 646 94 622 66 q 598 37 553 37 q 517 37 491 56 q 465 75 458 99 q 432 74 406 60 q 380 47 336 47 q 302 47 273 57 q 244 67 227 90 q 210 114 210 154 q 210 200 234 224 q 257 247 301 256 q 345 265 405 265 l 452 265 l 452 285 q 452 331 427 352 q 402 373 349 373 q 316 373 299 368 q 282 362 272 356 q 263 350 255 350 q 249 350 244 354 q 240 357 238 362 q 236 368 236 372 q 236 385 255 395 q 274 405 302 410 q 330 416 358 416 q 402 416 432 401 q 463 386 479 358 q 495 331 495 290 l 495 125 q 498 103 516 88 q 535 74 556 74 q 578 74 592 89 q 605 104 612 128 q 620 151 623 178 q 626 205 626 231 q 626 362 562 437 q 497 512 363 512 q 288 512 238 488 q 187 465 156 423 q 126 381 112 328 q 99 276 99 219 q 99 166 111 117 q 123 68 150 29 q 178 -10 222 -32 q 267 -55 332 -55 q 378 -55 406 -47 q 434 -39 450 -32 q 467 -24 477 -24 q 484 -24 489 -30 q 494 -35 494 -41 q 494 -50 480 -60 q 466 -69 442 -78 q 417 -86 388 -91 q 358 -96 328 -96 z m 338 85 q 375 85 400 98 q 426 111 439 130 q 452 149 452 166 l 452 228 l 408 228 q 365 228 330 224 q 296 219 276 204 q 255 188 255 154 q 255 117 279 101 q 303 85 338 85 z"},".":{"x_min":0,"x_max":165,"ha":165,"o":"m 83 -6 q 65 -6 54 6 q 42 19 42 35 q 42 52 54 64 q 65 76 83 76 q 99 76 111 64 q 123 52 123 35 q 123 19 111 6 q 99 -6 83 -6 z"},"p":{"x_min":0,"x_max":476,"ha":476,"o":"m 90 -235 q 80 -235 73 -228 q 66 -221 66 -213 l 66 452 q 66 461 73 466 q 80 472 90 472 q 101 472 108 466 q 114 461 114 452 l 114 402 q 131 431 165 454 q 199 478 248 478 q 297 478 338 454 q 379 429 404 388 q 428 346 428 295 l 428 179 q 428 131 404 88 q 379 46 338 20 q 298 -6 251 -6 q 205 -6 168 16 q 132 39 115 70 l 115 -213 q 115 -221 108 -228 q 101 -235 90 -235 z m 246 40 q 282 40 312 60 q 342 80 360 112 q 379 144 379 179 l 379 295 q 379 330 360 361 q 342 392 312 412 q 282 432 245 432 q 213 432 183 416 q 153 399 134 368 q 115 338 115 295 l 115 145 q 115 129 132 104 q 149 79 179 60 q 209 40 246 40 z"},"X":{"x_min":0,"x_max":464,"ha":464,"o":"m 54 -1 q 47 -1 40 2 q 34 6 30 12 q 26 17 26 24 q 26 30 29 37 l 201 366 l 32 692 q 26 703 26 711 q 26 718 30 722 q 34 727 40 730 q 46 732 54 732 q 66 732 74 720 q 81 708 86 697 l 231 414 l 378 697 q 383 708 391 720 q 399 732 410 732 q 417 732 424 730 q 430 727 434 722 q 437 718 437 711 q 437 703 432 692 l 261 366 l 434 37 q 438 30 438 24 q 438 17 434 12 q 430 6 424 2 q 417 -1 410 -1 q 400 -1 392 11 q 385 23 380 33 l 231 319 l 84 33 q 79 23 72 11 q 65 -1 54 -1 z"},"*":{"x_min":0,"x_max":425,"ha":425,"o":"m 120 395 q 115 395 109 398 q 103 400 98 406 q 94 411 94 417 q 94 424 99 430 l 181 539 l 51 577 q 43 580 40 586 q 37 591 37 597 q 37 607 43 614 q 49 622 59 622 q 60 622 62 622 q 64 621 65 620 l 195 575 l 190 710 q 190 720 197 726 q 204 731 212 731 q 221 731 228 726 q 234 720 235 710 l 230 574 l 359 620 q 362 622 367 622 q 375 622 382 614 q 388 605 388 597 q 388 590 384 585 q 380 580 373 577 l 244 540 l 327 429 q 330 425 330 418 q 330 408 322 402 q 315 395 306 395 q 302 395 298 396 q 293 398 290 403 l 212 517 l 134 402 q 131 398 128 396 q 124 395 120 395 z"},"Y":{"x_min":0,"x_max":518,"ha":518,"o":"m 259 0 q 249 0 242 6 q 234 11 234 21 l 234 276 q 234 280 232 283 l 25 690 q 23 696 22 701 q 20 706 20 709 q 20 716 24 720 q 28 725 33 728 q 38 731 44 731 q 50 731 56 726 q 62 722 67 713 l 259 328 l 452 713 q 457 722 463 726 q 469 731 475 731 q 481 731 486 728 q 491 725 494 720 q 498 716 498 709 q 498 706 497 701 q 496 696 493 690 l 285 283 q 284 280 284 276 l 284 21 q 284 11 276 6 q 268 0 259 0 z"},"c":{"x_min":0,"x_max":407,"ha":407,"o":"m 237 -6 q 173 -6 132 18 q 90 42 70 84 q 49 126 49 179 l 49 293 q 49 345 69 388 q 89 430 131 454 q 173 478 237 478 q 278 478 308 468 q 339 457 356 443 q 373 429 373 417 q 373 412 370 406 q 366 400 361 396 q 356 393 350 393 q 341 393 330 403 q 318 413 298 422 q 277 432 239 432 q 170 432 134 394 q 98 357 98 293 l 98 179 q 98 115 134 78 q 170 40 240 40 q 280 40 302 50 q 323 60 334 70 q 346 80 356 80 q 363 80 368 76 q 372 72 376 67 q 379 62 379 56 q 379 45 362 30 q 344 15 312 4 q 281 -6 237 -6 z"},"!":{"x_min":0,"x_max":197,"ha":197,"o":"m 98 155 q 91 155 84 160 q 78 166 78 174 q 78 261 76 352 q 73 443 70 534 q 67 625 67 712 q 67 728 76 737 q 85 746 98 746 q 111 746 120 737 q 130 728 130 712 q 130 625 128 534 q 125 443 122 352 q 119 261 119 174 q 119 166 112 160 q 105 155 98 155 z m 99 -6 q 81 -6 70 6 q 58 19 58 35 q 58 52 70 64 q 81 76 99 76 q 115 76 127 64 q 139 52 139 35 q 139 19 127 6 q 115 -6 99 -6 z"},"/":{"x_min":0,"x_max":471,"ha":471,"o":"m 42 -23 q 34 -23 28 -18 q 21 -12 21 -4 q 21 3 24 7 l 410 758 q 415 768 426 768 q 434 768 442 762 q 449 755 449 746 q 449 740 446 734 l 62 -10 q 59 -17 54 -20 q 48 -23 42 -23 z"},"[":{"x_min":0,"x_max":293,"ha":293,"o":"m 95 -21 q 86 -21 78 -15 q 71 -9 71 0 l 71 747 q 71 756 78 762 q 86 768 95 768 l 253 768 q 262 768 268 761 q 274 754 274 745 q 274 736 268 728 q 262 721 253 721 l 121 721 l 121 26 l 253 26 q 262 26 268 19 q 274 12 274 2 q 274 -7 268 -14 q 262 -21 253 -21 z"},"6":{"x_min":0,"x_max":511,"ha":511,"o":"m 264 -6 q 207 -6 162 15 q 116 36 89 82 q 62 127 62 203 l 62 522 q 62 598 89 644 q 116 689 162 710 q 207 731 264 731 q 312 731 350 718 q 387 704 412 680 q 438 656 452 626 q 465 596 465 563 q 465 550 458 544 q 452 538 441 538 q 431 538 423 544 q 415 549 415 561 q 415 598 394 626 q 374 653 340 668 q 305 683 263 683 q 192 683 152 644 q 112 604 112 522 l 112 357 q 138 394 179 411 q 220 428 268 428 q 323 428 368 410 q 412 392 438 349 q 465 306 465 230 l 465 203 q 465 127 438 82 q 411 36 366 15 q 320 -6 264 -6 z m 264 40 q 335 40 375 80 q 415 119 415 202 l 415 229 q 415 312 375 347 q 335 382 264 382 q 195 382 154 350 q 112 317 112 238 l 112 202 q 112 119 152 80 q 193 40 264 40 z"},"r":{"x_min":0,"x_max":318,"ha":318,"o":"m 89 0 q 79 0 72 6 q 65 13 65 21 l 65 452 q 65 461 72 466 q 79 472 89 472 q 100 472 106 466 q 113 461 113 452 l 113 401 q 125 421 144 438 q 163 456 190 467 q 216 478 250 478 l 286 478 q 295 478 301 472 q 307 465 307 455 q 307 445 301 438 q 295 432 286 432 l 250 432 q 216 432 184 414 q 153 397 134 364 q 114 332 114 286 l 114 21 q 114 13 107 6 q 100 0 89 0 z"},"2":{"x_min":0,"x_max":468,"ha":468,"o":"m 60 0 q 52 0 44 6 q 36 12 36 21 l 36 118 q 36 160 61 195 q 86 230 124 262 q 163 293 207 323 q 251 353 290 386 q 328 419 353 456 q 378 494 378 540 q 378 575 362 608 q 346 640 314 662 q 282 683 233 683 q 177 683 140 652 q 103 620 103 557 q 103 550 96 543 q 90 536 77 536 q 64 536 59 544 q 54 551 54 570 q 54 616 78 652 q 101 689 142 710 q 183 731 234 731 q 292 731 336 705 q 379 679 404 636 q 428 594 428 542 q 428 489 403 446 q 378 403 340 368 q 301 333 257 302 q 213 272 174 244 q 136 215 112 184 q 87 154 87 118 l 87 48 l 416 48 q 424 48 430 41 q 437 34 437 24 q 437 15 430 8 q 424 0 416 0 z"},"{":{"x_min":0,"x_max":296,"ha":296,"o":"m 252 -20 q 202 -20 162 -1 q 121 18 96 52 q 72 86 72 131 q 72 141 74 163 q 76 185 79 213 q 82 241 85 268 q 88 296 90 316 q 92 336 92 342 q 92 354 83 357 q 74 360 62 361 q 50 362 41 366 q 32 371 32 384 q 32 398 41 402 q 50 407 62 408 q 74 409 83 412 q 92 415 92 427 q 92 435 89 458 q 86 482 82 512 q 78 541 75 568 q 72 594 72 605 q 72 638 86 667 q 100 696 125 719 q 150 742 182 755 q 215 768 252 768 q 264 768 270 761 q 277 754 277 745 q 277 736 271 729 q 265 722 257 722 q 219 722 188 705 q 157 688 140 660 q 122 633 122 600 q 122 589 125 564 q 128 538 132 509 q 136 480 139 456 q 142 432 142 425 q 142 408 130 397 q 117 386 108 384 q 117 381 130 371 q 142 361 142 344 q 142 335 139 306 q 136 277 132 242 q 128 207 125 176 q 122 145 122 131 q 122 100 136 80 q 151 60 172 48 q 194 36 217 31 q 240 26 257 26 q 265 26 269 22 q 273 18 275 14 q 277 9 277 4 q 277 -7 270 -14 q 262 -20 252 -20 z"},"9":{"x_min":0,"x_max":511,"ha":511,"o":"m 247 -6 q 199 -6 162 8 q 124 21 98 45 q 73 69 60 99 q 46 129 46 162 q 46 176 52 182 q 59 187 70 187 q 80 187 88 182 q 96 176 96 164 q 96 127 116 100 q 137 72 172 57 q 206 42 247 42 q 319 42 359 82 q 399 121 399 203 l 399 368 q 373 332 332 314 q 291 297 243 297 q 188 297 144 315 q 99 333 72 376 q 46 419 46 495 l 46 522 q 46 598 73 644 q 100 689 145 710 q 190 731 247 731 q 304 731 350 710 q 395 689 422 644 q 449 598 449 522 l 449 203 q 449 127 422 82 q 395 36 350 15 q 304 -6 247 -6 z m 247 343 q 316 343 358 376 q 399 409 399 487 l 399 523 q 399 606 358 646 q 318 685 247 685 q 176 685 136 646 q 96 606 96 523 l 96 496 q 96 413 136 378 q 176 343 247 343 z"}," ":{"x_min":0,"x_max":200,"ha":200,"o":""},"I":{"x_min":0,"x_max":209,"ha":209,"o":"m 105 0 q 95 0 88 6 q 80 11 80 21 l 80 711 q 80 721 88 726 q 95 731 105 731 q 114 731 122 726 q 130 721 130 711 l 130 21 q 130 11 122 6 q 114 0 105 0 z"},"H":{"x_min":0,"x_max":564,"ha":564,"o":"m 105 0 q 95 0 88 6 q 80 11 80 21 l 80 711 q 80 721 88 726 q 95 731 105 731 q 114 731 122 726 q 130 721 130 711 l 130 402 l 435 402 l 435 711 q 435 721 442 726 q 450 731 460 731 q 469 731 477 726 q 485 721 485 711 l 485 21 q 485 11 477 6 q 469 0 460 0 q 450 0 442 6 q 435 11 435 21 l 435 356 l 130 356 l 130 21 q 130 11 122 6 q 114 0 105 0 z"},"4":{"x_min":0,"x_max":430,"ha":430,"o":"m 313 0 q 303 0 296 6 q 288 11 288 21 l 288 175 l 30 175 q 20 175 14 182 q 9 188 9 197 q 9 202 10 206 q 11 209 13 211 l 267 714 q 272 724 278 728 q 285 731 292 731 q 298 731 303 728 q 308 726 312 722 q 316 717 316 710 q 316 705 313 698 l 73 224 l 288 224 l 288 439 q 288 450 296 454 q 303 459 313 459 q 323 459 330 454 q 338 450 338 439 l 338 224 l 395 224 q 406 224 412 216 q 417 209 417 199 q 417 190 411 182 q 405 175 395 175 l 338 175 l 338 21 q 338 11 330 6 q 323 0 313 0 z"},"~":{"x_min":0,"x_max":401,"ha":401,"o":"m 268 219 q 243 219 224 228 q 204 238 184 246 q 165 255 137 255 q 116 255 103 247 q 90 239 82 230 q 74 222 66 222 q 62 222 58 225 q 54 228 52 233 q 50 238 50 243 q 50 255 59 264 q 68 274 82 282 q 96 289 111 293 q 126 297 139 297 q 164 297 184 288 q 203 280 223 270 q 243 261 268 261 q 291 261 302 269 q 314 277 320 284 q 327 292 335 292 q 341 292 344 289 q 348 286 350 282 q 352 278 352 273 q 352 259 344 250 q 335 240 322 233 q 308 226 294 222 q 279 219 268 219 z"},"D":{"x_min":0,"x_max":555,"ha":555,"o":"m 103 0 q 93 0 86 6 q 80 12 80 20 l 80 711 q 80 719 86 725 q 93 731 103 731 l 280 731 q 337 731 383 710 q 429 689 456 644 q 482 598 482 522 l 482 209 q 482 133 456 88 q 429 42 383 21 q 337 0 280 0 z m 130 48 l 280 48 q 352 48 392 88 q 432 127 432 209 l 432 522 q 432 604 392 644 q 352 683 280 683 l 130 683 z"},"^":{"x_min":0,"x_max":264,"ha":264,"o":"m 20 596 q 12 596 6 602 q 0 609 0 619 q 0 624 3 628 q 6 633 11 636 l 115 692 q 123 697 132 697 q 141 697 149 692 l 253 637 q 259 634 262 628 q 264 623 264 617 q 264 609 258 603 q 253 597 245 597 q 243 597 240 598 q 238 599 236 600 l 132 655 l 28 599 q 26 598 24 597 q 22 596 20 596 z"},"0":{"x_min":0,"x_max":527,"ha":527,"o":"m 263 -6 q 206 -6 160 15 q 115 36 88 82 q 62 127 62 203 l 62 522 q 62 598 88 644 q 115 689 160 710 q 206 731 263 731 q 319 731 365 710 q 411 689 438 644 q 465 598 465 522 l 465 203 q 465 127 438 82 q 411 36 365 15 q 319 -6 263 -6 z m 263 42 q 334 42 374 82 q 415 121 415 203 l 415 522 q 415 604 374 644 q 334 683 263 683 q 192 683 152 644 q 112 604 112 522 l 112 203 q 112 121 152 82 q 192 42 263 42 z m 264 328 q 250 328 240 338 q 230 348 230 362 q 230 376 240 386 q 250 395 264 395 q 278 395 288 386 q 297 376 297 362 q 297 348 288 338 q 278 328 264 328 z"},"F":{"x_min":0,"x_max":492,"ha":492,"o":"m 105 0 q 95 0 88 5 q 80 10 80 21 l 80 710 q 80 720 87 726 q 94 731 103 731 l 458 731 q 469 731 474 724 q 479 716 479 708 q 479 699 474 691 q 468 683 458 683 l 130 683 l 130 389 l 289 389 q 298 389 304 382 q 309 375 309 365 q 309 357 304 350 q 299 343 289 343 l 130 343 l 130 21 q 130 10 122 5 q 114 0 105 0 z"},"`":{"x_min":0,"x_max":143,"ha":143,"o":""},"k":{"x_min":0,"x_max":445,"ha":445,"o":"m 90 0 q 80 0 73 6 q 66 13 66 21 l 66 745 q 66 755 73 760 q 80 766 90 766 q 101 766 108 760 q 115 755 115 745 l 115 242 l 373 468 q 380 473 386 473 q 392 473 398 470 q 403 468 407 463 q 411 458 411 450 q 411 446 410 442 q 409 437 404 434 l 250 299 l 429 35 q 433 30 433 24 q 433 18 430 12 q 426 6 420 2 q 414 -1 407 -1 q 397 -1 391 9 l 214 268 l 115 181 l 115 21 q 115 13 108 6 q 101 0 90 0 z"},"u":{"x_min":0,"x_max":489,"ha":489,"o":"m 245 -6 q 195 -6 153 20 q 111 45 86 87 q 61 129 61 177 l 61 451 q 61 459 68 466 q 76 472 86 472 q 96 472 103 466 q 110 459 110 451 l 110 177 q 110 142 128 111 q 146 80 176 60 q 207 40 245 40 q 283 40 313 60 q 343 79 361 110 q 379 142 379 177 l 379 452 q 379 460 386 466 q 394 472 404 472 q 415 472 422 466 q 428 460 428 452 l 428 177 q 428 128 403 86 q 378 44 336 19 q 295 -6 245 -6 z"},"]":{"x_min":0,"x_max":293,"ha":293,"o":"m 40 -21 q 31 -21 25 -14 q 19 -7 19 2 q 19 12 25 19 q 31 26 40 26 l 172 26 l 172 721 l 40 721 q 31 721 25 728 q 19 736 19 745 q 19 754 25 761 q 31 768 40 768 l 198 768 q 208 768 215 762 q 222 756 222 747 l 222 0 q 222 -9 214 -15 q 207 -21 198 -21 z"},"U":{"x_min":0,"x_max":556,"ha":556,"o":"m 277 -6 q 221 -6 175 15 q 129 36 102 82 q 76 127 76 203 l 76 711 q 76 721 84 726 q 91 731 101 731 q 110 731 118 726 q 126 721 126 711 l 126 203 q 126 121 166 82 q 206 42 277 42 q 349 42 390 82 q 430 121 430 203 l 430 711 q 430 721 438 726 q 445 731 455 731 q 464 731 472 726 q 480 721 480 711 l 480 203 q 480 127 453 82 q 426 36 380 15 q 334 -6 277 -6 z"},"o":{"x_min":0,"x_max":461,"ha":461,"o":"m 230 -6 q 182 -6 140 20 q 98 46 72 88 q 47 130 47 179 l 47 295 q 47 344 72 386 q 97 428 139 453 q 181 478 230 478 q 280 478 322 454 q 363 429 388 388 q 414 346 414 295 l 414 179 q 414 131 388 88 q 363 46 322 20 q 280 -6 230 -6 z m 230 40 q 268 40 298 60 q 328 80 346 112 q 365 144 365 179 l 365 295 q 365 330 347 361 q 329 392 298 412 q 268 432 230 432 q 192 432 162 412 q 132 392 114 361 q 96 330 96 295 l 96 179 q 96 144 114 112 q 132 80 162 60 q 193 40 230 40 z"},"N":{"x_min":0,"x_max":564,"ha":564,"o":"m 105 0 q 95 0 88 6 q 80 11 80 21 l 80 710 q 80 722 88 726 q 95 731 105 731 q 114 731 122 724 q 129 718 135 708 q 141 699 145 690 l 435 119 l 435 711 q 435 721 442 726 q 450 731 460 731 q 469 731 477 726 q 485 721 485 711 l 485 21 q 485 11 477 6 q 469 0 460 0 q 448 0 439 12 q 430 25 424 37 l 130 613 l 130 21 q 130 11 122 6 q 114 0 105 0 z"},"+":{"x_min":0,"x_max":430,"ha":430,"o":"m 216 60 q 206 60 199 66 q 192 71 192 80 l 192 218 l 55 218 q 46 218 40 224 q 34 231 34 240 q 34 250 40 256 q 46 263 55 263 l 192 263 l 192 400 q 192 408 199 414 q 206 421 216 421 q 226 421 232 414 q 238 408 238 400 l 238 263 l 375 263 q 383 263 390 256 q 396 250 396 240 q 396 231 390 224 q 383 218 375 218 l 238 218 l 238 80 q 238 71 232 66 q 226 60 216 60 z"},"G":{"x_min":0,"x_max":536,"ha":536,"o":"m 273 -6 q 217 -6 172 15 q 126 36 100 82 q 73 127 73 203 l 73 522 q 73 598 100 644 q 126 689 172 710 q 217 731 273 731 q 336 731 381 709 q 426 687 450 648 q 475 610 475 562 q 475 548 468 542 q 461 536 450 536 q 440 536 433 541 q 426 546 425 557 q 420 599 401 627 q 382 655 350 669 q 317 683 273 683 q 202 683 162 644 q 122 604 122 522 l 122 203 q 122 121 162 82 q 202 42 273 42 q 344 42 384 82 q 425 121 425 203 l 425 338 l 278 338 q 268 338 262 345 q 257 352 257 361 q 257 370 262 377 q 268 384 278 384 l 455 384 q 464 384 470 378 q 475 371 475 362 l 475 203 q 475 127 448 82 q 422 36 376 15 q 330 -6 273 -6 z"},"q":{"x_min":0,"x_max":476,"ha":476,"o":"m 385 -235 q 375 -235 368 -228 q 360 -221 360 -213 l 360 70 q 345 39 308 16 q 271 -6 225 -6 q 178 -6 137 20 q 96 46 72 88 q 47 131 47 179 l 47 295 q 47 346 72 388 q 96 429 137 454 q 178 478 227 478 q 277 478 311 454 q 345 431 361 402 l 361 452 q 361 461 368 466 q 376 472 386 472 q 396 472 402 466 q 409 461 409 452 l 409 -213 q 409 -221 402 -228 q 396 -235 385 -235 z m 230 40 q 268 40 297 60 q 326 79 343 104 q 360 129 360 145 l 360 295 q 360 338 341 368 q 322 399 292 416 q 263 432 231 432 q 194 432 164 412 q 133 392 114 361 q 96 330 96 295 l 96 179 q 96 144 114 112 q 133 80 164 60 q 194 40 230 40 z"},"d":{"x_min":0,"x_max":476,"ha":476,"o":"m 225 -6 q 178 -6 137 20 q 96 46 72 88 q 47 131 47 179 l 47 295 q 47 346 72 388 q 96 429 137 454 q 178 478 227 478 q 277 478 310 454 q 344 431 360 402 l 360 745 q 360 755 368 760 q 375 766 385 766 q 396 766 402 760 q 409 755 409 745 l 409 21 q 409 13 402 6 q 396 0 385 0 q 376 0 368 6 q 361 13 361 21 l 361 70 q 346 39 308 16 q 271 -6 225 -6 z m 229 40 q 267 40 296 60 q 326 79 343 104 q 360 129 360 145 l 360 295 q 360 338 341 368 q 322 399 292 416 q 263 432 230 432 q 194 432 164 412 q 133 392 114 361 q 96 330 96 295 l 96 179 q 96 144 114 112 q 133 80 163 60 q 193 40 229 40 z"},"1":{"x_min":0,"x_max":221,"ha":221,"o":"m 123 0 q 114 0 106 6 q 98 11 98 21 l 98 629 l 57 557 q 53 550 48 547 q 43 544 38 544 q 29 544 23 551 q 17 558 17 566 q 17 573 22 581 q 26 589 29 593 l 102 715 q 107 722 112 726 q 116 731 126 731 q 135 731 142 726 q 148 721 148 711 l 148 21 q 148 11 140 6 q 133 0 123 0 z"},"5":{"x_min":0,"x_max":466,"ha":466,"o":"m 231 -6 q 168 -6 122 17 q 77 40 54 78 q 30 115 30 161 q 30 176 36 182 q 43 187 54 187 q 66 187 73 181 q 80 175 80 164 q 80 126 100 98 q 120 71 154 56 q 189 42 230 42 q 302 42 342 81 q 382 120 382 203 l 382 222 q 382 301 342 340 q 302 378 231 378 l 95 378 q 76 378 70 384 q 65 390 65 398 q 65 403 66 408 q 66 412 67 416 l 86 710 q 87 719 92 725 q 96 731 105 731 l 378 731 q 388 731 392 724 q 396 716 396 707 q 396 698 392 690 q 388 683 378 683 l 132 683 l 114 424 l 231 424 q 288 424 334 404 q 379 385 406 340 q 432 296 432 222 l 432 203 q 432 127 406 81 q 379 35 333 14 q 287 -6 231 -6 z"}}}
